<svg height="60" viewBox="0 0 120 60" width="120" xmlns="http://www.w3.org/2000/svg"><path d="m88.42 43.88-1.42-.78-1.46.74.3-1.61-1.16-1.16 1.63-.21.69-1.46.71 1.48 1.61.25-1.19 1.13zm-54.16-.2-1.44-.78-1.46.74.3-1.61-1.16-1.16 1.62-.21.75-1.46.71 1.48 1.61.25-1.19 1.13zm19.49 4.59c-.44-.19-.19-.64.5-.9a1.41 1.41 0 0 0 1.08-1.77 3.49 3.49 0 0 0 -.77-1.89 5.41 5.41 0 0 0 -1-1.18 3.05 3.05 0 0 0 -1.18.16c-1.36.36-2 .34-2.16-.09s-.07-.36.22-.46a2.09 2.09 0 0 0 1-1.35c0-.45-.45-.71-1.2-.71-.45 0-.76.08-.8.19s-1.16-.76-1.16-1.09c0-.15.34-.4.87-.64a7.67 7.67 0 0 0 1.85-1.31 6.16 6.16 0 0 1 1-.91 1.55 1.55 0 0 1 .51.29c.33.26.41.27.66.08a.73.73 0 0 1 1.12.12c.51.65 2.12.89 3.6.54a10.33 10.33 0 0 1 1.87-.16 4 4 0 0 1 2.41.6 11.63 11.63 0 0 1 1.85 1.15 28.78 28.78 0 0 1 3.54 4.37c1.17 1.8 2 2.56 3.13 3a4.08 4.08 0 0 1 1 .52 2 2 0 0 1 -.36.49 1.16 1.16 0 0 1 -1 .4q-1.77 0-3.61-2.69a5.38 5.38 0 0 0 -1-1.18c-.07 0-.25.23-.41.49l-.29.45.46.71.47.71-.39.66c-.59 1-1.2 1.45-2 1.45-1.24 0-1.34-.63-.17-1 .77-.25.88-.37.76-.84-.08-.3-.33-.49-1.08-.83a6 6 0 0 1 -1.8-1.3l-.83-.85-1 .1a7.75 7.75 0 0 0 -1.33.24 5.68 5.68 0 0 0 -1.11 1.83c-1.26 2.33-1.43 2.51-2.35 2.6a2.77 2.77 0 0 1 -.94 0zm26.53-1.87-.28-.06a2.79 2.79 0 0 0 .19-.28 2.33 2.33 0 0 0 .1-.27.59.59 0 0 0 0-.38.29.29 0 0 0 -.23-.18.19.19 0 0 0 -.23 0 .91.91 0 0 0 -.19.3l-.07.17a.9.9 0 0 1 -.32.42.66.66 0 0 1 -.87-.24 1 1 0 0 1 0-.64 1.45 1.45 0 0 1 .11-.31 2.62 2.62 0 0 1 .17-.33l.3.07a1.26 1.26 0 0 0 -.22.31 1 1 0 0 0 -.12.31.59.59 0 0 0 0 .4.33.33 0 0 0 .25.19.23.23 0 0 0 .26-.05.58.58 0 0 0 .2-.28l.08-.17a1 1 0 0 1 .3-.42.6.6 0 0 1 .81.23.85.85 0 0 1 0 .58c0 .1-.06.2-.1.3a2.1 2.1 0 0 1 -.15.3zm.66-3.56-.21 1.82h-.25l.09-.76-1.92-.22v-.29l1.92.22.09-.76.25.05zm-.15-.38h-.31a1.26 1.26 0 0 0 .21-.32.84.84 0 0 0 .07-.35.71.71 0 0 0 -.22-.57 1.21 1.21 0 0 0 -1.32 0 .72.72 0 0 0 -.24.57 1 1 0 0 0 .07.35.87.87 0 0 0 .2.31h-.25a1.37 1.37 0 0 1 -.16-.32 1.49 1.49 0 0 1 -.05-.36 1 1 0 0 1 .31-.77 1.18 1.18 0 0 1 .83-.28 1.21 1.21 0 0 1 .83.29 1 1 0 0 1 .29.78 1.36 1.36 0 0 1 0 .36 1.2 1.2 0 0 1 -.16.32zm0-4.05v.29l-1.31.14a.92.92 0 0 0 -.48.16.53.53 0 0 0 -.11.43.52.52 0 0 0 .19.39.89.89 0 0 0 .52.07l1.32-.14v.29l-1.35.14a.84.84 0 0 1 -.67-.14.81.81 0 0 1 -.28-.59.83.83 0 0 1 .15-.64.92.92 0 0 1 .62-.27l1.35-.14zm-.68-2.11-1.66.37.08.35a.75.75 0 0 0 1 .65.86.86 0 0 0 .57-.35.93.93 0 0 0 .06-.68l-.08-.34zm.17-.34.13.58a1.31 1.31 0 0 1 0 1 1.29 1.29 0 0 1 -1.61.36 1.35 1.35 0 0 1 -.46-.83l-.14-.59zm-.73-1.57a.6.6 0 0 0 -.4-.39 1.09 1.09 0 0 0 -.68 0 1 1 0 0 0 -.54.39.64.64 0 0 0 .34 1 1 1 0 0 0 .68 0 1 1 0 0 0 .55-.39.62.62 0 0 0 0-.55zm.22-.07a.89.89 0 0 1 0 .78 1.14 1.14 0 0 1 -.68.53 1.07 1.07 0 0 1 -.86 0 1 1 0 0 1 -.5-1.36 1.19 1.19 0 0 1 .68-.54 1.16 1.16 0 0 1 .86 0 .93.93 0 0 1 .54.59zm-1.91-1.47a.47.47 0 0 1 0 .22 1.35 1.35 0 0 1 -.18.29l-.4.53-.14-.28.37-.49a.71.71 0 0 0 .17-.32.48.48 0 0 0 -.06-.27l-.15-.29-.82.41-.13-.26 2-1 .3.59a.9.9 0 0 1 .11.57.64.64 0 0 1 -.34.37.67.67 0 0 1 -.35.07.9.9 0 0 1 -.29-.16zm.48-1.06-.69.34.17.33a.42.42 0 0 0 .23.24.33.33 0 0 0 .31-.05.38.38 0 0 0 .21-.22.53.53 0 0 0 -.06-.33l-.17-.33zm-1-1.71-.69.44.2.31a.43.43 0 0 0 .26.21.34.34 0 0 0 .31-.07.42.42 0 0 0 .2-.26.45.45 0 0 0 -.08-.32zm0-.37.36.56a.76.76 0 0 1 .16.54.61.61 0 0 1 -.31.42.62.62 0 0 1 -.51.11.85.85 0 0 1 -.44-.38l-.2-.31-.73.47-.16-.25zm-2-2.45.9 1-.18.16-.72-.81-.48.43.68.77-.19.16-.68-.77-.59.51.73.83-.19.16-.92-1 1.64-1.43zm-1.34-1.26.21.2-1.32 1.39.77.72-.17.18-1-.93zm-.79-.66.23.19-1.39 1.66-.2-.19zm-1.82-1.34 1.51 1-.15.2-.63-.44-1.12 1.58-.24-.17 1.12-1.56-.63-.44.14-.2zm-.39-.09-.15.26a1.14 1.14 0 0 0 -.17-.33.89.89 0 0 0 -.28-.23.72.72 0 0 0 -.61-.08.93.93 0 0 0 -.5.47 1 1 0 0 0 -.15.67.71.71 0 0 0 .39.47.87.87 0 0 0 .34.12.81.81 0 0 0 .38 0l-.15.26a1.08 1.08 0 0 1 -.36-.05 1.48 1.48 0 0 1 -.35-.13 1 1 0 0 1 -.53-.64 1.18 1.18 0 0 1 .16-.85 1.2 1.2 0 0 1 .65-.58 1 1 0 0 1 .83.12 1.14 1.14 0 0 1 .3.23 1 1 0 0 1 .2.29zm-2.81-1.3-.79.83.73.32zm0-.33.31.13-.1 2.31-.28-.12v-.59l-.9-.38-.4.43-.29-.12 1.62-1.66zm-2.51-.88 1.76.56-.08.23-.79-.19-.57 1.78-.29-.09.59-1.82-.73-.23.07-.24zm-3 .42a.94.94 0 0 0 -.23.21.54.54 0 0 0 -.1.23.46.46 0 0 0 .1.37.58.58 0 0 0 .36.19h.19l.24-.11-.64-.89zm.23-.12.62.85a1.1 1.1 0 0 0 .17-.25 1.33 1.33 0 0 0 .11-.3l.26.05a1.38 1.38 0 0 1 -.15.36 1.87 1.87 0 0 1 -.26.33l.34.47-.37-.06-.17-.24a1 1 0 0 1 -.35.14.63.63 0 0 1 -.36 0 .85.85 0 0 1 -.54-.29.68.68 0 0 1 -.14-.54.63.63 0 0 1 .15-.32 1.19 1.19 0 0 1 .34-.27.77.77 0 0 1 -.08-.19.54.54 0 0 1 0-.18.46.46 0 0 1 .21-.35.61.61 0 0 1 .45-.08.39.39 0 0 1 .23.07l.23.11v.26a1.35 1.35 0 0 0 -.22-.14.86.86 0 0 0 -.21-.07.62.62 0 0 0 -.25.05.25.25 0 0 0 -.13.2.27.27 0 0 0 0 .15 1.4 1.4 0 0 0 .14.23zm-3.46-1h.3v1.91h1.06v.25h-1.39zm-1.5.4-.28 1.11.79-.09-.51-1zm-.19-.27.33-.05 1.01 2.02-.3.05-.26-.53-1 .1-.14.57-.3.05.6-2.23zm-2.63.44 1.81-.36.05.24-.76.15.38 1.87-.29.06-.38-1.87-.76.15zm-.69.2.28-.08.57 2.08-.29.03-.57-2.08zm-.34 2-.2-.55-.45.17-.09-.23.73-.26.32.87a1.37 1.37 0 0 1 -.29.3 2.06 2.06 0 0 1 -.39.21 1.08 1.08 0 0 1 -.85 0 1.15 1.15 0 0 1 -.56-.68 1.1 1.1 0 0 1 0-.87 1.07 1.07 0 0 1 .65-.55 1.8 1.8 0 0 1 .39-.08h.39l.11.29a1.19 1.19 0 0 0 -.4-.08 1.32 1.32 0 0 0 -.46-.01.79.79 0 0 0 -.49.41 1 1 0 0 0 0 .69 1 1 0 0 0 .42.55.83.83 0 0 0 .64 0l.25-.12a.93.93 0 0 0 .18-.16zm-3-.79.26-.13.92 2-.27.12zm-1.82 1.23.85 1.45.3-.18a.89.89 0 0 0 -.16-1.6.92.92 0 0 0 -.68.15l-.31.17zm-.37-.07.52-.29a1.34 1.34 0 0 1 .94-.23 1 1 0 0 1 .67.56 1.05 1.05 0 0 1 .15.85 1.37 1.37 0 0 1 -.67.69l-.53.3zm-2.55 2.16 1.08 1.29.27-.23a.91.91 0 0 0 .38-.57 1.07 1.07 0 0 0 -.82-1 1.11 1.11 0 0 0 -.64.26l-.27.23zm-.36 0 .47-.38a1.36 1.36 0 0 1 .88-.39 1 1 0 0 1 .76.43 1 1 0 0 1 .3.82 1.35 1.35 0 0 1 -.55.79l-.46.38zm-1.5 1.5 1-1 .18.17-.75.77.47.44.72-.74.18.18-.72.74.57.54.76-.79.09.19-1 1-1.53-1.5zm-1.5 1.79 1.14-1.43.2.15-.48.6 1.52 1.18-.19.23-1.52-1.18-.47.6zm-.85 1.3.67-1 .21.14-.52.79.54.35.47-.72.21.13-.47.72.88.56-.16.24-1.83-1.17zm-.49 1.46.78.84.37-.7zm-.33 0 .15-.3 2.32.26-.14.27-.59-.08-.45.87.41.42-.15.28zm.37 2a.48.48 0 0 1 .19-.13 1.39 1.39 0 0 1 .33-.06l.67-.06-.12.29-.62.06a.5.5 0 0 0 -.34.09.42.42 0 0 0 -.17.23l-.12.29.86.33-.1.27-2-.77.24-.62a.8.8 0 0 1 .35-.45.6.6 0 0 1 .51 0 .57.57 0 0 1 .28.22.5.5 0 0 1 .08.32zm-1.12.35.72.28.13-.35a.49.49 0 0 0 0-.33.38.38 0 0 0 -.24-.2.35.35 0 0 0 -.3 0 .46.46 0 0 0 -.21.27l-.13.34zm-.4.88.3.08a1 1 0 0 0 -.28.25.88.88 0 0 0 -.16.32.74.74 0 0 0 .07.61 1.07 1.07 0 0 0 .59.36 1.15 1.15 0 0 0 .69 0 .74.74 0 0 0 .37-.49.88.88 0 0 0 0-.36.85.85 0 0 0 -.12-.36l.3.08a1.44 1.44 0 0 1 .07.36 1.2 1.2 0 0 1 -.05.36 1 1 0 0 1 -.49.67 1.26 1.26 0 0 1 -.87.06 1.16 1.16 0 0 1 -.73-.49 1.16 1.16 0 0 1 .06-1.16 1.18 1.18 0 0 1 .23-.27zm-.73 3.72 1.67.24.05-.35a.9.9 0 0 0 -.1-.68 1 1 0 0 0 -.61-.3.74.74 0 0 0 -1 .73v.35zm-.28.25.08-.59a1.3 1.3 0 0 1 .4-.87 1 1 0 0 1 .85-.18 1.08 1.08 0 0 1 .78.41 1.34 1.34 0 0 1 .13.95l-.09.59zm-.11 2.48v-.4l1.84-.91-1.82-.05v-.29l2.17.05v.4l-1.85.91 1.82.05v.29l-2.18-.05zm.39 1.52 1.12.29-.08-.79zm-.27.19v-.33l2.09-1v.3l-.54.25.09 1 .57.15v.3l-2.24-.62zm.51 3-.06-.29.87-.15-.22-1-.87.19-.06-.29 2.13-.44.06.28-1 .22.22 1 1-.21.06.29zm48.66-14.68.27 1.09-4.32 3.91 5-1.27.2.78-6 1.52-.28-1.09 4.32-3.91-5 1.27-.2-.78zm-6.18-1.08 1.43-.82-.68-1.18.6-.34 1.09 1.89-2.3 1.32a4.22 4.22 0 0 1 -1-.66 4.51 4.51 0 0 1 -.77-1 3 3 0 0 1 -.4-2.38 3.83 3.83 0 0 1 4.08-2.34 3 3 0 0 1 1.87 1.54 4.58 4.58 0 0 1 .44 1.06 4.05 4.05 0 0 1 .12 1.09l-.77.44a3.37 3.37 0 0 0 0-1.14 3.07 3.07 0 0 0 -.37-1.05 2.14 2.14 0 0 0 -1.36-1.11 2.74 2.74 0 0 0 -1.91.44 2.77 2.77 0 0 0 -1.35 1.43 2.13 2.13 0 0 0 .3 1.78 3.41 3.41 0 0 0 .46.64 1.85 1.85 0 0 0 .52.42zm.14-9.08.54.63-4.66 4-.55-.63zm-2-1.81-.52.62a5.34 5.34 0 0 0 -.48-.83 2.89 2.89 0 0 0 -.55-.6 1.8 1.8 0 0 0 -1-.47.8.8 0 0 0 -.76.35.71.71 0 0 0 -.21.62 2.29 2.29 0 0 0 .5.86l.32.39a2.48 2.48 0 0 1 .66 1.36 1.59 1.59 0 0 1 -.42 1.2 1.61 1.61 0 0 1 -1.33.66 2.61 2.61 0 0 1 -1.65-.76 5.25 5.25 0 0 1 -.66-.67 6.73 6.73 0 0 1 -.59-.88l.55-.66a5.18 5.18 0 0 0 .49 1 3.43 3.43 0 0 0 .64.72 1.87 1.87 0 0 0 1 .48.86.86 0 0 0 .81-.37.93.93 0 0 0 .24-.72 1.94 1.94 0 0 0 -.46-.87l-.33-.4a2.64 2.64 0 0 1 -.56-1.34 1.42 1.42 0 0 1 .38-1.11 1.55 1.55 0 0 1 1.26-.62 2.38 2.38 0 0 1 1.53.65 5.25 5.25 0 0 1 .63.62 6.63 6.63 0 0 1 .56.77zm-8.56-5.79 3.49 1.75-.32.62-2.74-1.37-.82 1.63 2.64 1.26-.32.62-2.63-1.31-1 2 2.8 1.41-.31.62-3.54-1.79zm-7.08-1.32-1 4.67 1 .21a2.54 2.54 0 0 0 1.94-.17 2.44 2.44 0 0 0 1-1.65 2.42 2.42 0 0 0 -.19-1.89 2.6 2.6 0 0 0 -1.7-1zm-.67-.89 1.68.36a3.86 3.86 0 0 1 2.41 1.29 2.91 2.91 0 0 1 .32 2.44 3 3 0 0 1 -1.32 2.12 3.89 3.89 0 0 1 -2.73.18l-1.67-.37 1.31-6zm-11.33.64 1.11-.19 3.56 4.61-.87-5.07.8-.14 1 6.06-1.11.19-3.56-4.61.86 5.07-.79.13zm-6.42 2.47 3.56-1.58.28.64-2.8 1.24.71 1.66 2.69-1.18.28.64-2.65 1.18.9 2 2.87-1.27.28.64-3.63 1.61zm-7.25 5.17 1-.79 3.87 2.26-1.49-4.24 1-.78 3.89 4.76-.63.52-3.42-4.19 1.44 4.27-.65.53-3.9-2.27 3.41 4.18-.62.51zm-4.33 5.49 2.27-3.16.57.41-1.81 2.48 1.48 1.06 1.71-2.35.57.41-1.7 2.38 1.81 1.29 1.83-2.54.57.41-2.31 3.22-5-3.58zm-1.67 3.11.37-.75 5.54 2.7-.37.75zm-1.56 6.62 4.63 1.25.26-1a2.59 2.59 0 0 0 -.07-2 2.42 2.42 0 0 0 -1.61-1 2.41 2.41 0 0 0 -1.9.1 2.6 2.6 0 0 0 -1.05 1.65zm-.88.63.44-1.65a3.86 3.86 0 0 1 1.41-2.34 3 3 0 0 1 2.46-.2 3 3 0 0 1 2 1.42 3.82 3.82 0 0 1 0 2.72l-.45 1.65z"/></svg>