<svg enable-background="new 0 0 120 60" height="60" viewBox="0 0 120 60" width="120" xmlns="http://www.w3.org/2000/svg" xmlns:xlink="http://www.w3.org/1999/xlink"><linearGradient id="a" gradientTransform="matrix(.9905 .1376 .1376 -.9905 -108.0203 29.5434)" gradientUnits="userSpaceOnUse" x1="129.3837" x2="147.8366" y1="19.7118" y2="19.7118"><stop offset=".01" stop-color="#c7422f"/><stop offset=".37" stop-color="#d46e43"/><stop offset="1" stop-color="#eeb575"/></linearGradient><linearGradient id="b"><stop offset=".21" stop-color="#cf603b"/><stop offset="1" stop-color="#eeb575"/></linearGradient><linearGradient id="c" gradientTransform="matrix(.9905 .1376 .1376 -.9905 -108.0203 29.5434)" gradientUnits="userSpaceOnUse" x1="135.1115" x2="143.4244" xlink:href="#b" y1="20.1915" y2="20.1915"/><linearGradient id="d" gradientTransform="matrix(.9905 .1376 .1376 -.9905 -108.0203 29.5434)" gradientUnits="userSpaceOnUse" x1="119.4302" x2="139.8492" xlink:href="#b" y1="19.2499" y2="19.2499"/><g fill="#1a1a1a"><path d="m46.3 20.8h7.6c5.2.1 6.4 4.5 6.4 8.4 0 8.3-4.3 8.2-6.4 8.2h-7.6zm7.3 13.6c2.7 0 3.3-2.5 3.3-5.2 0-3.8-1.3-5.3-3.3-5.3h-3.9v10.5z"/><path d="m66.8 20.9h3.9l5.7 16.6h-3.6l-1.4-3.8h-5.8l-1.5 3.8h-3.6zm3.8 9.9-1.9-5.6-2.1 5.6z"/><path d="m77.9 25.2c0-2.5 1-4.4 4.3-4.4 1.5 0 5.9.2 8 .6v2.5s-4.5-.2-7.5-.2c-1.1 0-1.5.7-1.5 1.5v1.2c0 1.3.6 1.3 1.5 1.3h4.3c2.9 0 4 1.9 4 4.2v1.6c0 3.4-2 4.1-4 4.1-1.4 0-7.4-.2-8.5-.7v-2.4s4.9.1 7.8.1c1 0 1.3-1.2 1.3-1.2v-1.5c0-.8-.3-1.2-1.3-1.2h-4.2c-3 0-4.2-1.4-4.2-4.2z"/><path d="m93.5 20.9h3.3v7h1.8l4.8-7h3.9l-5.7 8.4 5.7 8.2h-3.9l-4.8-6.7h-1.8v6.7h-3.3z"/></g><path d="m41.7 25.9c0-.3 0-.5.1-.8.3-4.4-.6-8.8-2.6-12.8l-1.4-2.9-.7 3.2c-1.6 7.4-6.6 13.5-13.5 16.4l-1 .4.4 1c1.2 3.2 1.7 6.7 1.3 10.2-.2 1.9-.6 3.7-1.2 5.4l-.8 2.2 2.2-.7c9.5-3.2 16.3-11.6 17.2-21.6zm-14.6 18.1-1.2.6.3-1.3c.2-.8.3-1.7.4-2.5.3-3.2 0-6.5-1-9.6l-.2-.5.5-.2c5.3-2.6 9.5-7 11.8-12.4l.7-1.7.4 1.8c.6 2.5.8 5.1.6 7.7-.7 7.6-5.3 14.5-12.3 18.1z" fill="url(#a)"/><path d="m36.4 27.2c.9-1.9 1.8-6.7 1.7-7-.9 1.7-1.9 3.3-3.2 4.7-.2.5-.4.9-.6 1.4-1.5 3.3-3.8 6.2-6.6 8.5.1.9.2 1.7.2 2.6 3.7-2.6 6.6-6.1 8.5-10.2z" fill="url(#c)"/><path d="m23.1 37.5c-2.1 1-4.2 1.6-6.5 1.9l-1.3.2.6-1.1c.4-.7.8-1.5 1.2-2.3 1.4-3 2.1-6.2 2.2-9.4v-.5l.5-.1c4.1-.6 8-2.1 11.4-4.5 1.7-2.1 3.1-4.5 3.9-7-4 5.5-10.2 9-17 9.5l-1.1.1v1.1c.1 3.5-.6 6.9-2 10-.8 1.7-1.7 3.3-2.9 4.8l-1.4 1.8h2.3c3.4 0 6.8-.6 10-1.9.2-.9.2-1.7.1-2.6z" fill="url(#d)"/></svg>